<?xml version="1.0" encoding="UTF-8"?>
<svg id="Layer_1" xmlns="http://www.w3.org/2000/svg" version="1.1" viewBox="0 0 1200 630">
  <!-- Generator: Adobe Illustrator 30.2.1, SVG Export Plug-In . SVG Version: 2.1.1 Build 1)  -->
  <defs>
    <style>
      .st0 {
        font-size: 28.9px;
      }

      .st0, .st1 {
        fill: #6a662b;
      }

      .st0, .st2, .st3 {
        isolation: isolate;
      }

      .st0, .st3 {
        font-family: Baskerville, Baskerville;
      }

      .st4, .st3 {
        fill: #1c1651;
      }

      .st3 {
        font-size: 14.5px;
      }
    </style>
  </defs>
  <path class="st4" d="M499.2,139.6c1.4,1.4,3.9,1.6,5.8,4-5.3-.8-9-3.1-13.8-5.3,1.9,2.2,4,2.4,5.2,4.1-1.9.5-3-1.4-5.3-1.7,7,10.3,17.7,14.6,27.5,20.3,0,.2-.4.6-.5.8l-22.6-6.6c6,8.3,15.6,11.6,23.4,17.4-5.9-.8-10.5-5.2-16.4-6.3,2.4,1.7,4.8,3.4,7.6,5.3-2.1.7-3-.7-4.7-.7,6.4,9.6,17.4,11.9,26.2,17.7-7.4-2.2-14.6-3.7-22.6-4.3,2.2,1.8,5.1,1.7,6.8,3.6-.4,1-1.1,0-1.7.6,6,8.9,16.6,10.5,25.2,15.4-4.6.5-8.9-1.9-14.5-.8,3.9,2.4,6.8,4.5,10,5.1.5,1.3-1,1.3-.7,2.3,4.6,2.8,10.6,1.8,14.8,5.8-1.6-2.4-3.3-4.2-4.1-6.9.5-1,1.9-.2,2.4-1.7-2.4-4.2-7.2-5.8-11-8.4.5-1.3,1.4-.2,1.8-1-1.8-1.4-4.3-1.8-5.8-3.9,3.7,1.9,8.1,1.1,12.1,2.9,1.2-5.4-4.6-6-6.2-9.5,1.1-.6,1.8.6,2.7.7-.8-4.1-3.4-6.9-6.9-8.9.6-1.6,1.6-.2,2.3-.7,0-1.7-2.2-1.9-2.8-3.4,1.1-.8,1.8.6,2.8.5v-.8c-.5-1.4-1.2-2.7-2.5-3.7-1.6-1.3-4.1-2.2-3.4-5.1,0,0-.2-.5-.4-.6-3.1-1.7-4.5-4.5-5.2-8,.4,0,1-.4,1.7-.6-.8-2.3-3.5-2.8-4.6-5.1,1.3-.4,2.2,1,3.4.8-.8-5.2-4.3-8.3-8.7-11,1.6-1.4,2.3.4,3.6.2-2.9-4.7-7.1-7.6-11.3-11.2,2.5-.4,3.7,1.8,5.8,1.8-2.3-4.9-7.6-6.4-11.5-10.3,2.3,0,3.4,1.4,5.5,1.9-1.9-5.1-7.2-5.8-10.5-9.5,2.9-.2,4.3,2.4,7.1,2.3-3.5-6.8-11.1-8.2-16.3-12.7,1.6-1.1,2.4.6,3.7.4-1.7-2.4,1.3-.7,1.4-1.8-1.6-1.3-3.1-2.7-4.7-4,1-1.1,1.8.6,2.7,0-.5-1.6-2.2-1.7-3.1-2.9,2.1-1.2.6-2.1-.2-3-2.4-2.5-5.5-4.2-8.4-6.2-1.1-.7-2.5-1.1-3.4-2.8,2.2-.6,3.5,1.7,6,1.6-4.8-2.8-8.9-5.2-13.9-8.1,4.1-.5,6.2,1.9,9.5,2.8-3.3-2.9-6.9-4.2-9.4-6.9.2-1.3,1.8-.4,2.3-1.8-3-4.6-7.6-8.3-10.6-13.4,2.5,1.2,4.2,3.3,6,5.2,1.9,2.1,3.9,4,5.9,6.2.6-1.7-1.3-2.8-.4-4.2,8.4,4.2,9,14.5,15.7,20.5,0-2.3-1.2-4.1-.7-7,3.5,5.7,3,12.8,8.9,16.4.7,0-.4-1.2.5-1.7,1.9,2.4,1.7,5.7,3.6,8.1,1.8,2.3,3.5,4.7,5.5,6.8,1,0,.6-1.6,2.2-1.4,0,9.5,8.3,15,11.8,23.6,1.8-4.7.6-8.9,1.4-13.1,3.1,13.8,5.2,27.6,14,40,1.2-2.8-.5-5.2,1.2-7.1,1.8,3.7,2.2,7.8,3.3,11.6,1.8,5.7,1.8,12.1,5.7,17.2,1.3,1.8,1.8,4.2,4.5,4.7.7,0,1.4.6,1.3,1.4-.5,3.7,2.7,5.7,4,8.4,1.1,2.2,2.4,5.2,1.7,8.1-.7,3.3,1,5.5,3.9,7.4,3.1-4.3,6.4-8.4,5.4-14.5-3.1.6-3.6,3.9-6.2,5.2-1.1-1.6-.2-3,.2-4.3,1.4-4.3,2.4-8.8,1.9-13.4-.1-1.4,1.6-4.5-2.3-4.1,0,0-.4-1.7-.5-2.5-.2-2.1.5-4.1-.8-6.4-2.9,2.8-2.5,6.9-4.9,9.8.5-9.3.7-18.5-3.1-27.4-.5.7-.8,1.2-1.3,2.2-1.8-3.7.6-8.2-3.1-11.1-.4,4.6-.1,9.2-2.5,13.6.2-10.3,0-20.4-4-30,.6,0,1.1-.4,1.7-.5,5.9,11.1,12.2,22.1,14.7,34.6,1.4,0,1-1.8,2.5-1.7,4.3,10,7.8,20.4,5.9,32.2,3.1-1.3,3.5-3.4,3.4-5.7v-107.7c0-5.1-.8-10-2.8-14.7-3.4-8.3-10.5-12.1-18.8-14.1-2.3-.6-4.9,0-6.9-1.7,1-1.4,2.4-1.2,3.6-1.2,29.8,0,59.6-.2,89.4,0,15.9,0,31.7,2.3,46.3,9.4,18.8,9,30.3,23.5,30.9,44.8.5,16.4-6.5,29.8-20,39.7-6.5,4.7-13.6,8.1-21.2,10.6-2.1.7-4.2,1.4-6.9,2.4,8.3,1.4,15.9,2.5,23.3,5.1,12.7,4.2,24,10.6,32.2,21.5,12.8,17,14,35.6,6.6,55.1-.5,1.2-1.3,2.2-1.1,4.1,7.6.4,15.1-.7,22.2-2.7,4,12.7,12.9,21.5,20.7,30.9-.7,1.6-2.5,1-3.3,2.4,1.9,3.5,6.3,4.9,8.4,8.2-1.4,1.8-3.6.7-5.2,1.8,2.7,3.6,6.9,5.5,9.3,8.9-.4,1.7-1.8,1-2.3,1.8,0,.2.1.6.4.8,7.4,7.2,13.8,15.6,21.8,22.2.8.7,1.7,1.4,1.3,2.7-.4,1.3-1.6,1.2-2.7,1.2-22.7,0-45.4,0-67.9-.6-4.7-.1-9.3,0-14-.2-17.1-.4-34.4-.8-51.5-1.3-2.4,0-4.1.7-5.8,2.5-7,8-24.4,8.1-31.5.2-1.7-1.8-3.5-2.4-5.8-2.4-41.4,1-82.7,1.8-124,1.8s-15.9-.4-23.6-2.4c-2.9-.8-6-1.7-7.8-5.3,5.1-2.7,10.1-4.6,15.6-5.2,3.3-.4,4-1.7,3.3-4.6-.2-.8-.5-1.9-.2-2.8,2.1-7.2,1-14.4,0-21.6-1-7.7.7-10.6,7.8-13.5,2.3-1,4.6-1.7,6.8-2.9,4.1-2.3,5.7-7.5,3.4-11.3-1-1.7,0-2.9,0-4.5-3.1-1-5.3-2.5-4.7-6.5.4-2.8,1.8-4.3,4.3-4.6,11-1.1,22-.8,32.9,0,2.3.2,4.3,1.2,4.6,4,.2,2.5.2,5.1-2.8,6.2-1.6.6-2.4,1.3-1.7,3.1.4,1.1-.4,2.1-.7,3-1,2.5-.7,4.9.8,7.7,4.3-5.3,7.8-10.4,10.1-16.3,1.1-2.8,2.3-3.6,5.1-2.3,3.3,1.6,6.8,1.8,10.3,1.7,3.4,0,4-.7,2.9-4-1-3.1-2.3-6.2-3.4-9.2-.8-2.4-2.4-3.7-5.1-3.4-2.7.5-4.8,1.8-5.1,4.9v2.7c-5.7,1.2-6.3-.2-4.2-9.3-2.5-1.8-5.5-1-8.4-1.3-2.7-.2-5.4-.2-8.2-1.4,1.3-2.5,4.5-1.8,6.2-4-7.1-5.4-13.6-11.8-24.4-10.6,3.6-4.1,8.4-2.1,11.9-4.3-6.9-8.4-16.2-13.8-23.8-21.1,5.2,1.2,10,3.6,16.3,3.7-8.8-5.8-12.9-14.5-18.2-22.1-2.4-3.5-5.8-6.2-9.2-8.6-1-.7-2.3-1.2-2.7-3.4,5.7,2.1,10.9,3.9,16.2,5.8-10.7-8.4-15.3-21.2-23.4-31.6,1.7-1.2,2.3,0,3.1.4s1.6.8,2.7,1.1c-10-8-11.5-20.7-17.9-30.9,7.1,5.9,16.5,7.5,23.6,13.3,0,.4-.2.6-.4,1-4.7-1.8-9.3-3.6-14.2-5.5.4,1.7,2.1,1.8,2.7,3.4-2.4,2.2-.6,3.5,1.4,4.7,2.4,1.4,5.1,2.8,7.6,5.3-3.9,0-5.5-3.1-9.4-4,4.5,4.9,6.4,10.6,11.5,14.1,5.2,3.5,10.4,6.9,16.2,9.3,0,.4-.4.8-.5,1.2-4.8-1.3-9.6-2.8-14.7-4.2,2.7,4.7,6.6,7,11.6,8.7.7.4,1.2.5,1.6.7M632.7,159.8c-10,1.7-18.9,6-26.4,12.9-6.8,6.2-12.1,13.5-12.8,22.7-.8,11.1.2,22.4,1.2,33.5.6,7.6,1,7.5,8.3,9.2,18.2,4.2,30.5,14.8,35.9,33.2.7,2.4.7,5.1,2.3,7.4,1.1-.7,1.4-1.9,2.1-2.8,3.5-5.5,7.5-10.7,12.4-15.1,8-7,17.1-11.7,27-15.1,2.5-.8,4.5-2.3,6-4.5,5.9-7.8,9.6-16.5,10.5-26.3,1.6-18.5-4.1-34-18.9-45.4-14-10.7-30-12.7-47.5-9.6M664.9,138.8c16.2-14.1,20.9-32,15.2-52-5.9-21-22.1-30.9-42.6-34.7-11.3-2.2-22.8-1.2-34.3-1.3-6.8,0-10.1,3.4-10.1,10v109.6c0,1.7-.6,3.7,1.2,5.3,2.5-1.2,3.7-3.6,5.5-5.3,9.6-8.9,21.2-13.8,33.7-17,11.1-2.9,21.8-6.8,31.2-14.6M640.9,297c.2,3.1-.5,6.4.4,9.6,1.9-.4,2.3-1.8,3-2.8,6.9-10.1,16-17.9,26.7-23.8,16.5-9.2,34.6-12.5,53.1-13.6,8.4-.5,17,0,25.6-.2,3.5,0,7.1-.1,10.7-1.7-.5-.8-.7-1.6-1.1-2.1-5.5-6.8-10.9-13.8-14.6-21.7-.8-1.7-2.2-1.6-3.6-1.3-10.1,1.8-20.5,1.4-30.6,2.8-16,2.1-31.6,5.7-45.2,14.7-13.9,9.3-25.9,20.3-24.4,40.2M598.8,247.1c3.6,7.5,9.8,12.3,17,16,1.3.7,3,1.1,3.6,3.7-13.5-6.4-27.1-7.5-42-6.2,3.4,5.1,5.1,9.9,5.9,15,1.6,9,1.8,8.7,11.1,9.5,15.4,1.4,29.2,6.9,39.6,19.3.7,1,1.3,2.3,2.9,1.9,1-.8.8-1.9,1-2.9.2-5.5.6-11.2.6-16.8.2-23.2-12.4-39.9-34.9-46-2.1-.6-4.7-2.1-6.3-.2-1.7,1.9.5,4.1,1.3,6.6M700.1,289.5c21.6-.1,42.7,5.2,64.7,6-1,1.4-1.7,1.2-2.4,1.2-6.9.1-13.8,0-20.6-1.2-17.4-3.3-35-4.6-52.6-3-6.3.6-17.1,3.4-22.1,6.2,15.8-5.4,31-6.3,46.4-4.2,14.8,2.1,29.8,3.6,44.5,7.1,3.7,1,7.8.5,11.9,2.4-2.2,1.1-3.9.5-5.5.2-13.6-1.9-27.3-3.9-40.9-5.9-14-2.2-28.1-2.8-42.2-.8-3.1.5-6.2,1-9.6,2.2.8,0,1.2.1,1.6,0,12.7-3.1,25.3-1.4,38,0,16.3,1.8,32.2,5.3,48.5,6.8,4.9.5,9.9,1.3,14.8,2.1v.7h-10.7c6.9,1,13.6,2.3,21.2,1.4-4.2-3.9-8-7.2-9.8-11.8-1.7-4-5.2-6.2-7.6-9.5-.5-.7-1.2-1-2.2-1-7.1,0-14.2-1.1-21.2-1.7-1,0-1.9-.4-2.7.5-1.7,2.1-3.9,1.7-5.8,1.2-4.6-.8-9.2-1.3-13.9-1.1-2.5.1-5.2,0-7.7-.2-18.5-1.7-36.1,1.6-52.8,9-.7.2-1.6.5-1.4,2.7,12.5-6.3,25.8-9,40-9.5M546.6,265c-6.8,7.5-13.5,15.1-21.7,21.1,1.6,1.9,3.3,1.8,4.8,1.9,14.7,1.2,29.3-.7,43.9-2.9,6.6-1,6.9-1.4,2.9-6.9-.8-1.1-1.7-2.3-2.5-3.4-2.1-2.4-3-5.2-3.1-8.3-.2-4.6-1.4-5.4-6-4.6-4.5.7-8.9,1.7-13.5.6-1.9-.5-3.4.4-4.7,2.4M583.7,288.8c11.9-.6,23.4,1.9,34.4,6.5-9.8-5.5-20.5-8.1-31.6-8.1s-22.7,2.2-34.1,3.3c-8.1.8-16,1-24.1-.4-3.4-.6-5.5.5-7.5,3.1-2.5,3.5-5.3,6.8-8.3,9.8s-3,1.4-3.3,3.5c1,.7,2.2.7,3.4.8,12.1.8,24,.5,36.1-.6,11.8-1.1,23.5-3.5,35.5-4.5,8.6-.7,17-.1,25.5,1.1-.5-.4-1-.6-1.4-.7-13.4-3.3-26.8-1.8-40,.4-15.4,2.4-30.8,4.3-46.3,3.6-1.3,0-2.8.2-4.2-1.8,23.3,1.1,45.1-4,67.3-7-20.4.7-40.5,6.6-61.2,4.3,6.4-.8,12.8-.8,19.1-2.3-5.9-.4-11.9,0-17.7-2.2,22.1,1.9,43.2-6.5,65-5.9-9.3-1.4-18.5,0-27.5,1.2-10.5,1.3-20.9,2.3-31.4,1.8-1.8,0-3.5-.2-5.3-1.2,1.3-1.1,2.4-.6,3.4-.6,10.1.6,20-.2,30-1.9,8-1.3,15.9-2.4,24.7-2.3M540.8,260.9c1.9,0,4,2.9,5.5.4,1.2-1.8,2.3-1.6,3.7-1.2,5.2,1.3,10.1.5,15.2-.5,2.1-.4,2.8-1.4,2.1-3.5-1.4-4.2-2.9-8.3-4.2-12.5-.6-1.7-1.6-2.4-3.4-2.4-4.5,0-8.8-.7-13.1-1.9-2.1-.6-3,.1-3.9,1.9-1.7,3.5-3.6,6.9-5.8,9.9-3.4,4.6-2.2,7.8,3.7,9.9M684.5,285.1c7.1-1.8,14.4-2.9,21.8-3.3,15.1-.7,29.8,1.8,44.6,3.7,6.5.8,13,1.4,19.8,1.2-2.7-2.5-5.2-4.6-7.5-6.9s-2.5-1.9-4.3-1.8c-6.9.2-13.8-.5-20.6-.8-5.2-.2-10.5,1.4-15.3.6-6.2-1-11.6,1-17.4,1.2-8.3.4-16.5,2.5-24.7,4.7-7.4,1.9-14.1,5.3-20,10.1,7.5-3.5,15.1-6.8,23.8-8.7M717.6,269.6c-2.2-.5-3.4,2.7-4.6,2.2-4.6-2.1-8.4.1-12.5,1.3-8.9,2.5-18.3,3.5-26.7,8.2-5.4,3-10.7,6.3-15.2,10.5,15-10.4,31.8-15.1,49.8-16.9,14.2-1.4,28.5,0,42.6,1,4.6.4,9.2.6,13.8-.5-3.5-3.7-6-8.8-12.4-6.8-1.1.4-2.3,0-3.5.1-10.3.1-20.5-.4-31.4,1M671.1,303.5c5.3-1.1,10.6-1.4,15.9-1.4,15,0,29.7,2.7,44.5,4.5,6.4.7,12.8,1.3,19.3,2.1-.7-.8-1.6-1.2-2.4-1.3-7.1-1.2-14.2-2.1-21.4-3.3-14.4-2.4-28.8-3.7-43.4-3.1-5.1.2-9.8,1.6-14.6,3.1.6-.1,1.1-.2,2.2-.5M483.9,306.9c-.4-.7-.6-1.6-1.7-1.6-5.4,0-10.4,1.2-15.1,4.1,9.3,1.3,18.5,5.1,28.5-.2-4.3-.7-7.8-1.3-11.8-2.3M565.8,230.5c.5,1.3.7,2.8,2.7,4.5v-22.6c0-2.2-1.4-2.1-2.9-.7-3,2.8-4,7.7-2.3,11.8.8,2.2,1.6,4.3,2.7,7M485.8,276.7v-2.8c0-.8.4-1.9-.8-3.1-1,7.8-1.2,15.2.5,22.4,1.8-5.3.4-10.6.5-16.6M554.7,297.8c-2.9.8-6.2-.1-8.9,1.7,7.6-.8,15.2-1.3,22.6-3.5-4.3.6-8.7,1.1-13.8,1.8M492.6,265.1c1.8-2.4,5.2-2.7,6.6-5.4-3.1,3-7.8,2.8-11.6,5.4,1.9,1.3,3.3,1.7,4.9,0M502.4,252c-.4,1.8-.7,3.6-1,5.4,2.3-2.2,3-4.7,1.7-7.6,0,.5-.4,1.1-.6,2.1M736.9,288c1.1,0,1.9,0,1.8-1.6-2.9-.4-5.8-1-8.8-.4,2.2.6,4.3,1.3,7,2.1M498.2,235.3c-2.2,1.8-2.2,2.3.5,3.7.7-1.2.6-2.3-.5-3.7Z"/>
  <path class="st4" d="M423,363.2c-1,8.3-2.3,10.1-12.9,17.5,1.1,1.4,2.9,1.4,4.3,1.9,9.8,3.1,16.2,10.5,16.4,19.2.4,11.7-4.5,19.3-15,23.5-3.7,1.4-7.6,2.5-11.6,2.5-12.8.1-25.7,0-38.5,0s-1.4-.2-2.7-.5c1.7-1.8,4.1-1.7,5.3-3.4,1.8-2.5,2.4-5.4,2.4-8.6v-58.9c0-5.7,0-11.2-7.2-12.7.6-1.7,1.7-1.2,2.5-1.2h31.5c4.6,0,9,1,13.3,2.8,7.6,3.3,11.8,8.9,12.1,17.6M387.5,383.1h-3.9c-2.2,0-2.9,1-2.9,3,0,9.8,0,19.7.4,29.4,0,5.3,3.5,8.3,8.8,9.3,4.7.8,9.3.6,13.9-.2,9.4-1.9,16-10,16.3-19.7.2-10.9-4.9-18-15.2-20.6-5.5-1.4-11.1-1.1-17.4-1.1M404.4,348.2c-6.2-4-13.1-2.2-19.8-2.7-2.8-.2-3.9,1-4,3.9-.4,9.4.6,18.9-.2,28.3-.2,2.2,1.1,2.8,3,2.8h11.9c8-.4,14.8-5.7,16.6-12.8,2.1-7.8-.4-14.5-7.6-19.4h0Z"/>
  <path class="st4" d="M591.6,392v-2.4c0-5.7-1.1-11-6.6-13.6-5.8-2.8-11.7-1.8-16.9,1.9-4,2.8-6.4,6.3-6.2,11.7.4,9,0,18.2,0,27.4s.6,7.1,5.4,10.1c-2.1,1.1-16.3,1.3-20,.4.1-.4.2-.8.4-.8,4.2-1.2,4.9-4.5,4.9-8.2v-62.7c0-3.9-.1-7.6-5.7-9.2,5.4-2.3,9.9-4.2,15-6.4.5,12.7-.2,25,.5,37.2,1.9.2,2.5-1,3.5-1.6,8-5.8,16.6-7.2,25.8-3.1,6.4,2.9,8.8,8.4,8.9,15.1v28.7c0,6.4.7,7.7,6.5,11.3h-20.9c4.5-2.1,5.5-5.9,5.5-10.3v-25.2l-.2-.2h0Z"/>
  <path class="st4" d="M688,428c-3.7,0-7.2.8-10.7-.2v-.7c4.7-1.7,5.4-5.5,5.4-9.9v-30.5c0-4.3.1-8.8-6.2-11,5.5-2.2,10.3-3.5,14.2-6,2.5,2.4-.4,5.5,1.8,7.7,1.3.2,1.8-.8,2.7-1.4,7.7-6,16.2-7.5,25.3-3.9,7.4,2.9,10,9.2,10.1,16.5.1,8.9,0,17.7,0,26.7s-1.2,10.3,5.8,12.2c-7,.8-13.6.8-20.5,0,6.4-2.7,5.3-8,5.3-12.9v-25.2c0-5.8-1.2-11-6.9-13.4-6.2-2.7-12.2-1.6-17.5,2.5-3.5,2.7-5.3,6-5.2,10.9.4,9.3,0,18.7.1,28,0,6.4.2,6.6,5.3,10.7h-9.4.2Z"/>
  <path class="st4" d="M654.8,373.7c4.6,3.3,6.5,7.6,6.6,12.8.1,9.2,0,18.5,0,27.6v2.8c0,6.5.8,7.2,7.7,6.8-2.1,3.5-5.2,4.6-8.4,4.9-4.9.6-7.2-2.4-8.4-6.6-1.8,0-2.8,1.3-4,2.1-6.4,4.3-13.3,6-21,3.9-6.4-1.8-10.5-6.3-11.1-12.2-.8-6.9,1.7-12.1,7.5-15.8,5.2-3.3,11.2-4.6,17.1-5.9,2.5-.6,4.9-1.4,7.5-1.7,3.6-.4,4.7-2.3,4.2-5.7-.2-1.6-.2-3.3-.6-4.8-1-5.2-4.1-8.3-8.7-8.8-6.6-.7-10.6,1.2-12.9,6.5-1,2.3-2.1,4.3-4.9,4.1-2.3-.1-3.6-1.4-4.2-3.6-.6-2.3,0-4.2,2.2-5.3,10.1-5.3,20.5-7,31.2-1.2M649.9,395.1c-5.8,1.3-11.7,2.4-17,5.3-5.9,3.3-8.8,10.5-6.6,16.5,2.1,5.5,7.1,8.2,13.6,7,1.9-.4,4-.8,5.5-1.9,3.3-2.1,6.8-4.1,7-8.6.2-5.2,0-10.3,0-15.4s-.2-2.9-2.7-2.9h.1,0Z"/>
  <path class="st4" d="M443.6,392.6c3.1-12.5,10.7-20.4,23.2-22.1,15.9-2.3,28.2,8.6,28.6,23,0,2.8-1,3.6-3.6,3.6-11.8,0-23.6,0-35.3-.1-3.3,0-4,1.1-3.9,4.1.7,11.8,7.7,20.5,18.9,22.4,8.1,1.4,15-1.4,20.6-7.2.8-.8,1.3-2.5,3.1-2.3-.8,9.2-15.9,16.5-29.1,14.5-16-2.5-26.3-18.7-22.6-35.9M466.5,373.3c-8.2,2.5-13.4,9.3-14,17.9,0,2.3,1,2.8,2.9,2.8h27c2.7,0,3.4-1.2,3.4-3.6,0-10.9-7.4-17.6-19.4-17h.1Z"/>
  <path class="st4" d="M820.9,375.2c5.8,4.6,8.6,10.6,9.4,17.6.4,2.9-.6,4.2-3.7,4.2-11.7-.1-23.4,0-35.1,0s-4.9.6-4.2,5.2c1,5.4,2.7,10.4,6.4,14.6,8.6,9.6,24.1,9.4,33.3-.4.8-.8,1.2-2.4,3.4-2.2-1,3.3-3,5.8-5.4,7.8-9,8-22.1,9.2-33.1,3.1-9.8-5.3-15.9-17.9-14.2-29.1,2.1-14.2,10.5-23.5,23.9-25.7,7-1.1,13.5.5,19.4,4.8M788.2,387.4c-.5,2.1-1.1,4-.6,6.4h31.1c1.2,0,1.9-.7,2.1-1.9.7-7.8-4.9-18.5-14.4-18.8-9-.4-14.7,4-18.2,14.4h0Z"/>
  <path class="st4" d="M846.1,381.5v-26.3c0-3.9-.7-7.2-5.2-8.9,4.6-2.2,9.2-3.6,13.4-6.2,1.3,1.9.8,3.7.8,5.3,0,23.6,0,47.2.1,70.8,0,4.5-.6,9.2,5.5,11.1-7,1-13.5.7-20,.6-.4-1,0-1.3.4-1.4,4.2-1.4,4.8-5.1,4.8-8.8v-36.1h.1Z"/>
  <path class="st4" d="M532.1,428c-11.6,3.3-19.1-2.3-19.1-14v-35.1c0-4.5-.2-4.7-4.8-4.7s-2.2-.5-4-1.6c8.4-3.3,14-8.9,16.5-17.9,2.4,3.1,1.4,5.8,1.6,8.2.1,8.9-.6,7.8,8,8h4.6c1.1,0,2.3.2,2.2,1.7,0,1.4-1.3,1.4-2.4,1.4h-8.1c-2.9,0-4.2,1.1-4.2,4.1v36.8c0,3.6.8,7.1,4.7,8.7,3.9,1.4,7-.2,9.8-3,.6-.6,1.1-1.6,2.8-1.4-.7,4.6-3.6,7-7.6,8.8h.1Z"/>
  <path class="st1" d="M746.7,507.3c-1.8.4-2.8,1.3-3.1,2.8-.2,1.1-.6,2.4.4,3.3,1.1,1,2.2.5,3.3,0,3.7-1.8,6.8-4.6,9.2-7.8-.1-1.4-2.2-.4-2.3-2.2,7.2-1.6,6.4-9,9.6-13.8,1.8-2.7,2.3-6.3,5.8-8-1.6,7-5.9,13-7.6,19.9,5.7,1.3,7.8.4,10-4.3,2.1-4.3,4-8.7,6-13,.6-1.3,1.1-3,3.9-2.7-2.9,6.5-5.5,12.8-8.3,18.9,2.2,1.7,4.6,0,6.8,1.8-2.8,1.9-7.5-.5-8.9,3.9-1.1,3.3-2.7,6.4-2.1,10.7,4.7-3.5,8.1-7.2,10.6-11.6.7-1.2,1.2-2.5,1.9-3.7.5-.8,1.2-1.6,2.3-1s.7,1.6.2,2.4c-1.4,3-3.3,5.9-3.4,9.9,4-2.4,6.3-6,8.9-9.2,1.1-1.3,2.2-2.8,3.3-4.1.6-.7,1.3-1.4,2.3-1,1.1.5.8,1.6.6,2.4-.8,2.9-1.6,5.8-2.5,8.7-.6,1.8-1,3.4,1.3,4.8-3.4,1.2-4,4-4.8,6.5-1.8,5.4-3.7,10.9-7.5,15.3-1.2,1.4-2.4,3.3-5.5,3.7,9-10.4,11.1-22.8,14.8-35.5-3.5,3.4-5.7,6.9-8.9,9.5-3.3,2.7-4.6,2.2-5.9-2.9-1.8,2.2-3.3,4-4.8,5.7-1.2,1.2-2.7,2.8-4.6,1.7-1.9-1.1-1.7-3.1-1.4-5.1,0-.6.6-1.3-.2-2.3-1.9,2.2-3.6,4.6-6,6.2-1.1.7-2.3,1.9-3.7,1.1-1.4-.7-1.6-2.3-1.4-3.7,0-1.6.2-3.1.5-5.2-2.8,1.9-4.9,4.1-7.6,5.4-1.9,1-4,1.8-5.9.1s-1.9-3.9-1.2-6.2c1.2-3.6,2.9-6.9,5.8-9.4,1.4-1.2,3.1-2.5,4.9-1,1.8,1.7.6,3.4-.5,4.9-1.1,1.4-2.4,2.5-4.3,3.3M759.9,506.7c-.7,3.3-2.8,6.3-2.1,10,4.5-2.4,9.9-9.2,10.5-12.7-2.9,0-6-1.1-8.4,2.5h0Z"/>
  <path class="st1" d="M713.8,527c-3.9,1.3-7.5,2.9-11.5,2.8-6.3-.2-8.3-4.1-5.1-9.4,1.4-2.4,3.4-4.6,5.9-5.9,4.6-2.5,5.9-7.2,8-11.5-1.8-.7-4,2.3-4.7-.4-.6-1.9,2.1-2.8,3.5-3.3,6.9-2.2,8.6-8.9,12.4-13.6.8-1,1.3-2.2,2.2-3.1.7-.8,1.4-2.3,2.8-1.2,1.1.8.2,1.9-.4,2.8-1.7,2.5-3.5,4.9-5.2,7.5-.6,1-1.6,1.8-1.3,3.3,4.7-.6,8.3-3.5,12.1-5.9,2.9-1.9,5.8-4,8-6.8.8-1.1,1.9-2.3,1.3-3.7-.7-1.6-2.5-1.7-4-1.7-4.3-.1-8.6.7-12.8,2.1-7.4,2.3-14.1,5.7-20,10.5-1.8,1.4-3.7,2.9-3.3,5.9-2.5,0-3-1.1-2.3-3,.8-1.9,2.2-3.6,3.9-4.9,8.7-7,18.6-11.1,29.6-12.8,2.3-.4,4.7-.2,7,.4,4.3,1.1,5.8,4.3,3.3,8.2-1.9,2.9-4.5,5.1-7.2,7-1.7,1.1-3.3,2.2-5.1,3.4,1,1.3,2.4,1.2,3.5,1.7,2.3,1,3.6,2.5,4.6,4.9.8,2.3.5,3.9-.6,5.9-5.3,10.3-14.4,16-24.5,21.1M719,521.2c5.7-3.6,10.9-7.7,14.8-13.1,1.8-2.5,4.1-5.3,2.4-8.6-1.8-3.5-5.3-2.7-8.4-2.7s-1.2,0-1.7.1c-7.6,1-12.7,5.3-14,12.2,4.8-1.4,9.3-4,14.4-3.7-2.2,1.3-4.6,2.1-6.9,2.9-6.2,2.3-12.5,4.3-13.6,12.2,0,.1-.4.2-.6.4-2.4-.6,0-2.8-1.4-3.9-2.5,1.4-4.3,3.6-5.5,6.4-1,2.3,0,3.7,2.3,4,1.4.2,3,0,4.5-.2,4.9-.7,9.2-3.3,13.9-5.9h0Z"/>
  <path class="st4" d="M756.7,428c-3.5-.1-6.8.5-11-.7,7.5-2.3,6.5-7.7,6.5-12.8v-28c0-4.2.2-8.6-5.8-10.7,5.4-2.3,9.9-4.1,14.2-5.9,1.3,1.4.8,2.9.8,4.2v43.1c0,4.2-.1,8.4,5.4,10-3.5,1.1-6.8.7-10.4.8h.1Z"/>
  <path class="st1" d="M794.5,459.4h-149.9c2.9-2.5,190.7-3,197.3-1-4.3,1.8-8.3.8-11.9,1-3.9.2-7.7,0-11.6,0h-23.9Z"/>
  <path d="M502.8,80c-1.7-3-4-5.2-6.9-7-.4,2.4,1.7,4.5.7,7.1-4.3-7.2-7-15.6-15.6-19.2.2,3,1.9,5.5,1,8.7-1.7-4.7-3.5-9.3-5.2-14,1.1-1,1.9-.2,2.7.2,4,2.9,8.3,5.2,11.2,9.3.8,1.2,2.4,1.3,3.6,2.1,4.8,3.4,8.7,7.4,10.7,13,1,2.5,1.8,5.2,3.6,7.8,0-2.9-1.8-5.2-1-8.1,6.8,6.8,13.4,13.5,17.1,22.7.6-.8,1.3-1.3,2.2-.2,7.1,9.9,13.3,20.1,13.1,32.9,0,.6-.2,1.1-.4,1.8-1.8-.5-1.3-1.9-1.4-2.9-.2-4.8-1.7-9.4-3.6-13.9-.6-1.2-.8-3-2.9-2.9-1.1,0-1-1.1-1.1-1.9-.1-1.3,0-2.8-1.7-3.9-.4,3.9-.5,7.7-1.4,11.7-1.8-1.1-1.6-2.7-1.7-3.9,0-5.2-.8-10.7-3.5-14.8-2.9-4.5-3.6-10.5-9-13.3-.7-.4-.6-1.8-1.8-2.4-.8,3.6.4,7.2-.7,11-1.2-7.4-5.1-13.5-8.2-20.3v.2h.1Z"/>
  <path class="st1" d="M632.6,441.2c0,2.9-1.9,4.8-3.6,6.6-3.7,4.1-7.8,7.8-12.3,11.2-3.4,2.7-6.5,5.5-10.5,7.2-2.3,1-4.7,1.9-7.1,1.4-3.5-.6-5.3,1.2-7.2,3.6-1.7,2.1-2.8,4.6-5.2,6-1.2-1.6-.1-2.5.5-3.5,3.3-4.5,6.9-8.7,9-14,2.2-5.2,7.6-7,12.4-9,3-1.2,6.3-2.1,9.4-2.5,5.7-.8,10.4-3.5,14.6-7.2h0Z"/>
  <path class="st1" d="M563.7,459.4h-180.8c3.4-2.8,188.8-2.9,192.9-.7-3.9,1-7.8.5-12.2.7h.1Z"/>
  <path class="st1" d="M592.4,581.1c3.4-.2,6.4-.4,9.4-.6,1.8,0,3.6-.2,5.4.8,2.4,1.3,4.6-.4,6.4-1.6,1.6-1.1,2.7-1.3,4.2,0,2.3,1.8,4.8,2.8,7.7,1.1.8-.5,2.3-.2,3.4-.2,13,1,26.1,1.1,39.2,1.3,1,0,2.1-.2,3,.6-.7,1.7-2.3,1.1-3.4,1.1-13.5,0-27,0-40.5,1.1-1.6,0-3.5-1.4-4.6-1-4.8,2.2-9.3,2.1-13.9-.4-15,2.3-29.9-.8-44.8,0-1.2,0-2.8.5-4.5-1.6,11.3-.2,22-.6,32.9-.8h-.1Z"/>
  <path d="M454.8,60.5c1,.8,1.9,1.3,2.4,2.7-1.4.2-2.1-1.3-3.5-1.3,2.8,1,.4,4.2,2.9,5.5,2.3,1.1,4.2,2.7,7,4.5-3.3.7-4.6-2.4-7.2-1.8,0,2.2.7,3.7,2.5,4.9,2.9,1.8,5.8,3.5,8.6,5.4,1.2.8,2.4,1.7,3.3,3.5-3.7-.7-6.2-4.7-10.1-3.4.5,4.1,4.2,5.7,5.8,8.8-2.8-1-5.2-2.5-6.9-4.9-3.3-4.7-5.8-9.8-6.3-15.7,0-1.2-.6-1.9-1.1-2.8-2.8-5.2-4.2-10.6-3.3-16.5.4-2.1,1.3-3.3,3.6-3.5,10.3-1.1,22.3,7.1,24.8,17v1.2c-1.7-.4-1.9-1.7-2.4-2.8-1.6-3.4-4-5.9-6.9-8.2-1.4-1.1-1.9-.6-2.4,1.2-2.5-4.9-7.4-4.2-11.5-5.9-.2,2.1,2.1,2.7,1.8,4.3-1.9,0-2.4-2.2-4.2-2.3-.6,2.1.2,4.6,2.5,7.7-.6.6-1.2-.8-1.9,0,.8.7,1.6,1.3,2.5,2.2h-.1Z"/>
  <path class="st4" d="M755.5,347.1c4.7.4,7.1,2.5,6.9,6.3-.1,3-1.7,5.1-4.7,5.7-2.8.6-5.2-.2-6.5-2.9-1.3-2.8-1.1-5.4,1.3-7.6.7-.7,1.8-1,3-1.6h0Z"/>
  <path d="M499.4,139.6c-.6-.2-1.1-.5-1.6-.7-1-.8-2.3-1-2.8-2.2,3,0,7,1.7,9,4.1-1.7.2-3-.8-4.7-1.1h0Z"/>
  <path d="M628.3,87.7c1.1-3.4-.2-6.8,1.3-10.3,1.3,1.3.8,2.8,1.1,4,.2,1.4.4,3,.5,4.5.6,8.9,3.5,11.8,12.5,12.7,2.2.2,4.7-.5,6.6,1.1-.6,1.2-1.6,1.1-2.5,1.2h-3.9c-8.8.6-12.2,4-12.8,12.9-.2,2.9-.6,5.7-.8,8.8-1.9-.7-1.6-2.2-1.6-3.3,0-2.9-.2-5.8-.8-8.7-1.3-6.6-4.7-9.3-12.4-9.8-1.8,0-3.7-.2-5.5-.4-.2,0-.5-.4-.7-.6.4-1.2,1.4-1.1,2.3-1.1,1.6,0,3.3,0,4.9-.2,9.4-1.6,10-2.4,11.7-11h.1Z"/>
  <path d="M614.1,133.5c1.6-1.1,2.7-2.1,2.9-4.3,1.7,1.7,2.2,3.6,4.1,4.6-1.7,1.2-2.8,2.4-3.7,4.2-1.3-1.6-2.4-2.9-3.4-4.5h.1Z"/>
  <path d="M643,126.2c-.7-.6-1.2-1.1-1.8-1.6,1-1.3,2.5-1.9,3.1-3.7,1.3,1.4,2.3,2.4,3.4,3.6-1,1.2-2.3,2.1-2.8,3.4-1.2-.2-1.3-1-1.9-1.7Z"/>
  <path d="M657.6,90.7c-1.8-2.7,1.2-3,1.6-4.8,1.2,1.3,2.1,2.3,3.1,3.5-.8,1.1-1.7,2.1-2.5,3.1-1.3,0-1.3-1.1-2.2-1.8Z"/>
  <g class="st2">
    <g class="st2">
      <g class="st2">
        <text class="st3" transform="translate(476.9 552)"><tspan x="0" y="0">AI DRIVEN TEXT COPY- AND LINEEDITOR</tspan></text>
      </g>
    </g>
  </g>
  <g class="st2">
    <g class="st2">
      <g class="st2">
        <text class="st0" transform="translate(454.4 515)"><tspan x="0" y="0">But you can call me</tspan></text>
      </g>
    </g>
  </g>
</svg>