<?xml version="1.0" encoding="UTF-8"?>
<svg id="Layer_1" xmlns="http://www.w3.org/2000/svg" version="1.1" viewBox="0 0 962 114.1">
  <!-- Generator: Adobe Illustrator 30.2.1, SVG Export Plug-In . SVG Version: 2.1.1 Build 1)  -->
  <defs>
    <style>
      .st0, .st1 {
        fill: #6b672b;
      }

      .st2 {
        fill: #6a662b;
      }

      .st3, .st1 {
        isolation: isolate;
      }

      .st4 {
        fill: #201b50;
      }

      .st1 {
        font-family: Baskerville, Baskerville;
        font-size: 38.4px;
      }
    </style>
  </defs>
  <path class="st4" d="M49.6,27.3c-.8,6.9-1.9,8.4-10.7,14.5.9,1.2,2.4,1.2,3.6,1.6,8.1,2.6,13.4,8.7,13.6,15.9.3,9.7-3.7,16-12.4,19.5-3.1,1.2-6.3,2.1-9.6,2.1H2.2c-10.6,0-1.2-.2-2.2-.4,1.4-1.5,3.4-1.4,4.4-2.8,1.5-2.1,2-4.5,2-7.1V21.8c0-4.7,0-9.3-6-10.5.5-1.4,1.4-1,2.1-1h26.1c3.8,0,7.5.8,11,2.3,6.3,2.7,9.8,7.4,10,14.6M20.2,43.8h-3.2c-1.8,0-2.4.8-2.4,2.5,0,8.1,0,16.3.3,24.4,0,4.4,2.9,6.9,7.3,7.7,3.9.7,7.7.5,11.5-.2,7.8-1.6,13.3-8.3,13.5-16.3.2-9-4.1-14.9-12.6-17.1-4.6-1.2-9.2-.9-14.4-.9M34.2,14.9c-5.1-3.3-10.9-1.8-16.4-2.2-2.3-.2-3.2.8-3.3,3.2-.3,7.8.5,15.7-.2,23.5-.2,1.8.9,2.3,2.5,2.3h9.9c6.6-.3,12.3-4.7,13.8-10.6,1.7-6.5-.3-12-6.3-16.1h0Z"/>
  <path class="st4" d="M189.4,51.2v-2c0-4.7-.9-9.1-5.5-11.3-4.8-2.3-9.7-1.5-14,1.6-3.3,2.3-5.3,5.2-5.1,9.7.3,7.5,0,15.1,0,22.7s.5,5.9,4.5,8.4c-1.7.9-13.5,1.1-16.6.3.1-.3.2-.7.3-.7,3.5-1,4.1-3.7,4.1-6.8V21.1c0-3.2-.1-6.3-4.7-7.6,4.5-1.9,8.2-3.5,12.4-5.3.4,10.5-.2,20.7.4,30.8,1.6.2,2.1-.8,2.9-1.3,6.6-4.8,13.8-6,21.4-2.6,5.3,2.4,7.3,7,7.4,12.5v23.8c0,5.3.6,6.4,5.4,9.4h-17.3c3.7-1.7,4.6-4.9,4.6-8.5v-20.9l-.2-.2h0Z"/>
  <path class="st4" d="M269.3,81c-3.1,0-6,.7-8.9-.2v-.6c3.9-1.4,4.5-4.6,4.5-8.2v-25.3c0-3.6.1-7.3-5.1-9.1,4.6-1.8,8.5-2.9,11.8-5,2.1,2-.3,4.6,1.5,6.4,1.1.2,1.5-.7,2.2-1.2,6.4-5,13.4-6.2,21-3.2,6.1,2.4,8.3,7.6,8.4,13.7.1,7.4,0,14.7,0,22.1s-1,8.5,4.8,10.1c-5.8.7-11.3.7-17,0,5.3-2.2,4.4-6.6,4.4-10.7v-20.9c0-4.8-1-9.1-5.7-11.1-5.1-2.2-10.1-1.3-14.5,2.1-2.9,2.2-4.4,5-4.3,9,.3,7.7,0,15.5.1,23.2,0,5.3.2,5.5,4.4,8.9h-7.8s.2,0,.2,0Z"/>
  <path class="st4" d="M241.8,36c3.8,2.7,5.4,6.3,5.5,10.6.1,7.6,0,15.3,0,22.9v2.3c0,5.4.7,6,6.4,5.6-1.7,2.9-4.3,3.8-7,4.1-4.1.5-6-2-7-5.5-1.5,0-2.3,1.1-3.3,1.7-5.3,3.6-11,5-17.4,3.2-5.3-1.5-8.7-5.2-9.2-10.1-.7-5.7,1.4-10,6.2-13.1,4.3-2.7,9.3-3.8,14.2-4.9,2.1-.5,4.1-1.2,6.2-1.4,3-.3,3.9-1.9,3.5-4.7-.2-1.3-.2-2.7-.5-4-.8-4.3-3.4-6.9-7.2-7.3-5.5-.6-8.8,1-10.7,5.4-.8,1.9-1.7,3.6-4.1,3.4-1.9,0-3-1.2-3.5-3-.5-1.9,0-3.5,1.8-4.4,8.4-4.4,17-5.8,25.9-1M237.7,53.8c-4.8,1.1-9.7,2-14.1,4.4-4.9,2.7-7.3,8.7-5.5,13.7,1.7,4.6,5.9,6.8,11.3,5.8,1.6-.3,3.3-.7,4.6-1.6,2.7-1.7,5.6-3.4,5.8-7.1.2-4.3,0-8.5,0-12.8s-.2-2.4-2.2-2.4h.1,0Z"/>
  <path class="st4" d="M66.7,51.7c2.6-10.4,8.9-16.9,19.2-18.3,13.2-1.9,23.4,7.1,23.7,19.1,0,2.3-.8,3-3,3h-29.3c-2.7,0-3.3.9-3.2,3.4.6,9.8,6.4,17,15.7,18.6,6.7,1.2,12.4-1.2,17.1-6,.7-.7,1.1-2.1,2.6-1.9-.7,7.6-13.2,13.7-24.1,12-13.3-2.1-21.8-15.5-18.7-29.8M85.7,35.7c-6.8,2.1-11.1,7.7-11.6,14.8,0,1.9.8,2.3,2.4,2.3h22.4c2.2,0,2.8-1,2.8-3,0-9-6.1-14.6-16.1-14.1h0Z"/>
  <path class="st4" d="M379.5,37.3c4.8,3.8,7.1,8.8,7.8,14.6.3,2.4-.5,3.5-3.1,3.5h-29.1c-9.7,0-4.1.5-3.5,4.3.8,4.5,2.2,8.6,5.3,12.1,7.1,8,20,7.8,27.6-.3.7-.7,1-2,2.8-1.8-.8,2.7-2.5,4.8-4.5,6.5-7.5,6.6-18.3,7.6-27.4,2.6-8.1-4.4-13.2-14.8-11.8-24.1,1.7-11.8,8.7-19.5,19.8-21.3,5.8-.9,11.2.4,16.1,4M352.4,47.4c-.4,1.7-.9,3.3-.5,5.3h25.8c1,0,1.6-.6,1.7-1.6.6-6.5-4.1-15.3-11.9-15.6-7.5-.3-12.2,3.3-15.1,11.9h0Z"/>
  <path class="st4" d="M400.4,42.5v-21.8c0-3.2-.6-6-4.3-7.4,3.8-1.8,7.6-3,11.1-5.1,1.1,1.6.7,3.1.7,4.4,0,19.6,0,39.1.1,58.7,0,3.7-.5,7.6,4.6,9.2-5.8.8-11.2.6-16.6.5-.3-.8,0-1.1.3-1.2,3.5-1.2,4-4.2,4-7.3v-29.9h0Z"/>
  <path class="st4" d="M140.1,81c-9.6,2.7-15.8-1.9-15.8-11.6v-29.1c0-3.7-.2-3.9-4-3.9s-1.8-.4-3.3-1.3c7-2.7,11.6-7.4,13.7-14.8,2,2.6,1.2,4.8,1.3,6.8.1,7.4-.5,6.5,6.6,6.6h3.8c.9,0,1.9.2,1.8,1.4,0,1.2-1.1,1.2-2,1.2h-6.7c-2.4,0-3.5.9-3.5,3.4v30.5c0,3,.7,5.9,3.9,7.2,3.2,1.2,5.8-.2,8.1-2.5s.9-1.3,2.3-1.2c-.6,3.8-3,5.8-6.3,7.3h0Z"/>
  <path class="st0" d="M826.8,70.9c-2.4.5-3.7,1.8-4.2,3.7-.3,1.4-.8,3.2.5,4.3,1.4,1.3,2.9.6,4.3,0,5-2.4,9-6.1,12.2-10.4-.2-1.9-2.9-.5-3-2.9,9.6-2.1,8.5-12,12.8-18.2,2.4-3.5,3-8.3,7.7-10.6-2.1,9.3-7.8,17.3-10.1,26.4,7.5,1.8,10.4.5,13.3-5.8,2.7-5.8,5.3-11.5,8-17.3.8-1.8,1.4-4,5.1-3.5-3.8,8.6-7.4,17-11,25.1,2.9,2.2,6.1,0,9,2.4-3.7,2.6-9.9-.6-11.8,5.1-1.4,4.3-3.5,8.5-2.7,14.2,6.2-4.6,10.7-9.6,14.1-15.4,1-1.6,1.6-3.4,2.6-5,.6-1.1,1.6-2.1,3-1.3s1,2.1.3,3.2c-1.9,4-4.3,7.8-4.5,13.1,5.3-3.2,8.3-8,11.8-12.2,1.4-1.8,2.9-3.7,4.3-5.4.8-1,1.8-1.9,3-1.3,1.4.6,1.1,2.1.8,3.2-1.1,3.8-2.1,7.7-3.4,11.5-.8,2.4-1.3,4.5,1.8,6.4-4.5,1.6-5.3,5.3-6.4,8.6-2.4,7.2-5,14.4-9.9,20.3-1.6,1.9-3.2,4.3-7.4,5,12-13.8,14.7-30.3,19.7-47.1-4.6,4.5-7.5,9.1-11.8,12.6s-6.1,2.9-7.8-3.8c-2.4,2.9-4.3,5.3-6.4,7.5-1.6,1.6-3.5,3.7-6.1,2.2-2.6-1.4-2.2-4.2-1.9-6.7,0-.8.8-1.8-.3-3-2.6,2.9-4.8,6.1-8,8.2-1.4,1-3,2.6-5,1.4-1.9-1-2.1-3-1.9-5,0-2.1.3-4.2.6-6.9-3.7,2.6-6.6,5.4-10.1,7.2-2.6,1.3-5.3,2.4-7.8.2s-2.6-5.1-1.6-8.2c1.6-4.8,3.8-9.1,7.7-12.5,1.9-1.6,4.2-3.4,6.6-1.3,2.4,2.2.8,4.5-.6,6.6-1.4,1.9-3.2,3.4-5.8,4.3M844.3,70.1c-1,4.3-3.7,8.3-2.7,13.3,5.9-3.2,13.1-12.2,13.9-16.8-3.8,0-8-1.4-11.2,3.4v.2h0Z"/>
  <path class="st0" d="M783.1,97c-5.1,1.8-9.9,3.8-15.2,3.7-8.3-.3-11-5.4-6.7-12.5,1.9-3.2,4.5-6.1,7.8-7.8,6.1-3.4,7.8-9.6,10.6-15.2-2.4-1-5.3,3-6.2-.5-.8-2.6,2.7-3.7,4.6-4.3,9.1-2.9,11.4-11.8,16.5-18.1,1.1-1.3,1.8-2.9,2.9-4.2,1-1.1,1.9-3,3.7-1.6,1.4,1.1.3,2.6-.5,3.7-2.2,3.4-4.6,6.6-6.9,9.9-.8,1.3-2.1,2.4-1.8,4.3,6.2-.8,11-4.6,16-7.8,3.8-2.6,7.7-5.3,10.6-9,1.1-1.4,2.6-3,1.8-5-1-2.1-3.4-2.2-5.3-2.2-5.8-.2-11.4,1-17,2.7-9.8,3-18.7,7.5-26.6,13.9-2.4,1.9-5,3.8-4.3,7.8-3.4,0-4-1.4-3-4,1.1-2.6,2.9-4.8,5.1-6.6,11.5-9.3,24.6-14.7,39.2-17,3-.5,6.2-.3,9.3.5,5.8,1.4,7.7,5.8,4.3,10.9-2.6,3.8-5.9,6.7-9.6,9.3-2.2,1.4-4.3,2.9-6.7,4.5,1.3,1.8,3.2,1.6,4.6,2.2,3,1.3,4.8,3.4,6.1,6.6,1.1,3,.6,5.1-.8,7.8-7,13.6-19,21.3-32.5,28M790,89.3c7.5-4.8,14.4-10.2,19.7-17.4,2.4-3.4,5.4-7,3.2-11.4-2.4-4.6-7-3.5-11.2-3.5s-1.6,0-2.2.2c-10.1,1.3-16.8,7-18.6,16.2,6.4-1.9,12.3-5.3,19-5-2.9,1.8-6.1,2.7-9.1,3.8-8.2,3-16.6,5.8-18.1,16.2,0,.2-.5.3-.8.5-3.2-.8,0-3.7-1.9-5.1-3.4,1.9-5.8,4.8-7.4,8.5-1.3,3,0,5,3,5.3,1.9.3,4,0,5.9-.3,6.6-1,12.2-4.3,18.4-7.8h0v-.2h0Z"/>
  <path class="st4" d="M326.3,81c-2.9,0-5.6.4-9.1-.6,6.2-1.9,5.4-6.4,5.4-10.6v-23.2c0-3.5.2-7.1-4.8-8.9,4.5-1.9,8.2-3.4,11.8-4.9,1.1,1.2.7,2.4.7,3.5v35.7c0,3.5-.1,7,4.5,8.3-2.9.9-5.6.6-8.6.7h.1Z"/>
  <path class="st4" d="M325.3,14c3.9.3,5.9,2.1,5.7,5.2-.1,2.5-1.4,4.2-3.9,4.7-2.3.5-4.3-.2-5.4-2.4-1.1-2.3-.9-4.5,1.1-6.3.6-.6,1.5-.8,2.5-1.3h0Z"/>
  <g class="st3">
    <g class="st3">
      <g class="st3">
        <text class="st1" transform="translate(439 81.1)"><tspan x="0" y="0">But you can call me</tspan></text>
      </g>
    </g>
  </g>
  <line class="st2" x1="14.6" y1="90.6" x2="929.9" y2="90.6"/>
</svg>